<?xml version="1.0" encoding="UTF-8"?>
<!DOCTYPE svg PUBLIC "-//W3C//DTD SVG 1.1//EN" "http://www.w3.org/Graphics/SVG/1.1/DTD/svg11.dtd">
<!-- Creator: CorelDRAW X7 -->
<svg xmlns="http://www.w3.org/2000/svg" xml:space="preserve" width="17.7798mm" height="17.7798mm" version="1.1" style="shape-rendering:geometricPrecision; text-rendering:geometricPrecision; image-rendering:optimizeQuality; fill-rule:evenodd; clip-rule:evenodd"
viewBox="0 0 1778 1778"
 xmlns:xlink="http://www.w3.org/1999/xlink">
 <defs>
  <style type="text/css">
   <![CDATA[
    .fil0 {fill:#026B29}
    .fil1 {fill:#7BB290}
   ]]>
  </style>
 </defs>
 <g id="Camada_x0020_1">
  <metadata id="CorelCorpID_0Corel-Layer"/>
  <g id="_123808864464">
   <path class="fil0" d="M172 1332c-15,-3 -9,-2 -19,-8l1 -30c2,-1 4,-2 6,-2l19 -5c58,-8 436,0 449,4l-1 160 -474 -3c-5,-46 -6,-47 40,-48 63,0 223,9 266,-7 29,-77 -62,-59 -121,-59l-166 -2zm74 -696c18,-44 8,-277 8,-346 0,-96 62,-84 74,-44 21,70 -28,314 27,328 58,15 43,-82 43,-125 0,-82 -19,-288 16,-338 87,-16 60,97 60,172 0,39 -9,325 7,347 19,27 55,16 60,-23 9,-78 -7,-289 0,-347 5,-38 39,-56 65,-28 22,23 11,394 11,451 0,148 -19,181 49,183 61,-78 106,-326 172,-245 20,32 2,56 -13,88l-96 222c-70,146 -128,118 -132,182 -2,35 2,69 -2,106l-410 0c-4,-36 -2,-70 -2,-107 -1,-85 -73,-74 -73,-233l0 -491c0,-29 7,-42 18,-57 148,-26 -27,365 118,305zm76 -488c-77,-8 -128,33 -135,113 -118,-2 -143,34 -143,150 1,111 -9,491 12,571 24,91 79,105 60,222 -12,38 -22,4 -30,52 -3,18 0,63 0,84 0,49 -6,118 5,164 48,28 354,13 458,13 182,0 142,20 145,-215 1,-119 -29,-40 -32,-121 0,-6 0,-40 1,-45 4,-28 65,-77 90,-113 38,-55 97,-205 127,-274 19,-45 54,-100 22,-156 -20,-36 -75,-69 -133,-45 -57,24 -46,66 -83,111 -9,-98 -2,-229 -2,-331 0,-115 -12,-191 -139,-171 -15,-61 -22,-99 -83,-114 -72,-18 -125,39 -140,105z"/>
   <path class="fil0" d="M1154 1620c66,1 136,0 203,0 20,0 89,3 104,-2 30,-10 34,-39 9,-57l-323 -7 3 -54 475 2c11,33 9,132 2,168 -40,9 -442,9 -479,-1 -4,-26 -6,-26 6,-49zm-215 -789c64,-18 66,25 107,118 32,75 49,153 95,132 38,-18 19,-170 19,-217 0,-76 0,-151 0,-227 0,-52 -24,-197 38,-197 91,-1 -3,379 54,417 69,46 51,-119 51,-159 0,-38 -6,-330 4,-351 14,-31 60,-29 70,6 22,72 -27,417 23,438 111,48 -17,-372 90,-354 78,13 3,325 42,418 71,28 58,-48 57,-104 0,-74 -25,-242 58,-201 24,12 20,44 20,72 -1,121 7,453 -3,526 -10,68 -29,84 -55,126 -27,43 0,114 -18,156 -17,19 -405,5 -411,3l-4 -134c-113,-76 -149,-197 -209,-338 -19,-44 -49,-83 -28,-130zm741 458l14 -25c59,-88 37,-317 37,-445 0,-209 43,-358 -142,-338 -2,-47 -31,-107 -73,-100 -71,-18 -67,26 -79,-52 -20,-99 -190,-106 -202,44 -139,0 -142,49 -142,181 0,106 2,214 0,319l-22 -33c-68,-144 -181,-70 -202,-17 -25,65 68,237 95,299 92,215 147,173 151,247 3,76 -9,64 -20,79 -23,32 -16,262 -2,276 17,19 571,18 588,1 18,-30 14,-199 11,-243 -6,-69 -32,-5 -32,-97 0,-68 -3,-52 20,-96z"/>
   <path class="fil0" d="M1594 1098c0,-61 3,-80 -56,-67 -23,48 0,86 -22,136 -15,36 -77,72 -52,109 30,45 80,-29 93,-47 26,-35 37,-72 37,-131z"/>
   <path class="fil0" d="M239 813c-47,-11 -54,-3 -56,42 -9,207 161,266 133,170 -6,-19 -31,-37 -45,-57 -34,-52 -8,-109 -32,-155z"/>
   <path class="fil1" d="M1680 1289c11,-8 8,10 14,-25l-14 25z"/>
  </g>
 </g>
</svg>
